HIERARCHY
ROOT Hips
{
	OFFSET 0.000000 0.000000 0.000000
	CHANNELS 6 Xposition Yposition Zposition Xrotation Yrotation Zrotation
	JOINT C_ctrl
	{
		OFFSET 0.000000 35.040482 -0.000011
		CHANNELS 3 Xrotation Yrotation Zrotation
		JOINT Bip01
		{
			OFFSET -41.537640 41.789009 -0.000007
			CHANNELS 3 Xrotation Yrotation Zrotation
			JOINT Bip01_Pelvis
			{
				OFFSET -2.462887 0.000000 0.000000
				CHANNELS 3 Xrotation Yrotation Zrotation
				JOINT BN_Tail_01
				{
					OFFSET -11.399368 7.351341 -0.000013
					CHANNELS 3 Xrotation Yrotation Zrotation
					JOINT BN_Tail_02
					{
						OFFSET -11.365196 -0.343025 0.000012
						CHANNELS 3 Xrotation Yrotation Zrotation
						JOINT BN_Tail_03
						{
							OFFSET -15.076256 -0.454979 0.000017
							CHANNELS 3 Xrotation Yrotation Zrotation
							JOINT BN_Tail_04
							{
								OFFSET -17.395691 -0.525002 0.000016
								CHANNELS 3 Xrotation Yrotation Zrotation
								JOINT BN_Tail_05
								{
									OFFSET -16.699837 -0.504005 0.000016
									CHANNELS 3 Xrotation Yrotation Zrotation
									End Site
									{
										OFFSET 0.503998 -16.699829 0.000067
									}
								}
							}
						}
					}
				}
				JOINT Bip01_Spine
				{
					OFFSET 8.297798 5.916809 -0.000020
					CHANNELS 3 Xrotation Yrotation Zrotation
					JOINT Bip01_R_Thigh
					{
						OFFSET -8.297779 -5.916794 10.541781
						CHANNELS 3 Xrotation Yrotation Zrotation
						JOINT Bip01_R_Calf
						{
							OFFSET 5.631542 -22.906792 0.862690
							CHANNELS 3 Xrotation Yrotation Zrotation
							JOINT Bip01_R_HorseLink
							{
								OFFSET -16.984341 -19.231926 -3.555767
								CHANNELS 3 Xrotation Yrotation Zrotation
								JOINT Bip01_R_Foot
								{
									OFFSET 4.290367 -24.783146 0.578056
									CHANNELS 3 Xrotation Yrotation Zrotation
									JOINT Bip01_R_Toe0
									{
										OFFSET 3.561211 -5.815116 0.760802
										CHANNELS 3 Xrotation Yrotation Zrotation
										JOINT Bip01_R_Toe0Nub
										{
											OFFSET 16.135469 0.002017 1.534789
											CHANNELS 3 Xrotation Yrotation Zrotation
											End Site
											{
												OFFSET -0.000002 16.208284 -0.000056
											}
										}
									}
								}
							}
						}
					}
					JOINT Bip01_L_Thigh
					{
						OFFSET -8.297813 -5.916832 -10.541739
						CHANNELS 3 Xrotation Yrotation Zrotation
						JOINT Bip01_L_Calf
						{
							OFFSET 5.631535 -22.906792 -0.862625
							CHANNELS 3 Xrotation Yrotation Zrotation
							JOINT Bip01_L_HorseLink
							{
								OFFSET -16.984318 -19.231949 3.555875
								CHANNELS 3 Xrotation Yrotation Zrotation
								JOINT Bip01_L_Foot
								{
									OFFSET 4.290367 -24.783169 -0.577965
									CHANNELS 3 Xrotation Yrotation Zrotation
									JOINT Bip01_L_Toe0
									{
										OFFSET 3.561245 -5.815111 -0.760799
										CHANNELS 3 Xrotation Yrotation Zrotation
										JOINT Bip01_L_Toe0Nub
										{
											OFFSET 6.574303 -0.000005 -1.538561
											CHANNELS 3 Xrotation Yrotation Zrotation
											End Site
											{
												OFFSET 0.000004 -6.751935 0.000023
											}
										}
									}
								}
							}
						}
					}
					JOINT Bip01_Spine1
					{
						OFFSET 20.556803 -4.626213 -0.000025
						CHANNELS 3 Xrotation Yrotation Zrotation
						JOINT Saddle
						{
							OFFSET 17.608810 18.174690 -0.000143
							CHANNELS 3 Xrotation Yrotation Zrotation
							End Site
							{
								OFFSET -0.000063 -0.000061 -22.448387
							}
						}
						JOINT BN_center
						{
							OFFSET 10.743275 -13.417107 -0.172041
							CHANNELS 3 Xrotation Yrotation Zrotation
							End Site
							{
								OFFSET 22.434088 0.553078 -0.579614
							}
						}
						JOINT Bip01_Spine2
						{
							OFFSET 24.765072 -2.054115 -0.000032
							CHANNELS 3 Xrotation Yrotation Zrotation
							JOINT Handle
							{
								OFFSET 63.735676 16.430748 -16.052464
								CHANNELS 3 Xrotation Yrotation Zrotation
								JOINT IK_Chain01
								{
									OFFSET -4.713058 -6.020439 0.185448
									CHANNELS 3 Xrotation Yrotation Zrotation
									End Site
									{
										OFFSET -0.000023 -0.000023 -7.648071
									}
								}
							}
							JOINT BN_hair04_01
							{
								OFFSET 1.987491 16.256981 -2.049672
								CHANNELS 3 Xrotation Yrotation Zrotation
								JOINT BN_hair04_02
								{
									OFFSET -1.318762 -3.831451 -6.174704
									CHANNELS 3 Xrotation Yrotation Zrotation
									JOINT BN_hair04_03
									{
										OFFSET -0.827490 -5.886627 -5.656666
										CHANNELS 3 Xrotation Yrotation Zrotation
										End Site
										{
											OFFSET -2.658262 5.010620 -5.929780
										}
									}
								}
							}
							JOINT Bip01_Neck
							{
								OFFSET 25.574577 9.433014 -0.000084
								CHANNELS 3 Xrotation Yrotation Zrotation
								JOINT Bip01_R_Clavicle
								{
									OFFSET -16.535652 0.011192 6.705692
									CHANNELS 3 Xrotation Yrotation Zrotation
									JOINT Bip01_R_UpperArm
									{
										OFFSET 20.272621 -12.959984 2.510816
										CHANNELS 3 Xrotation Yrotation Zrotation
										JOINT Bip01_R_Forearm
										{
											OFFSET -13.633509 -15.503704 -0.653585
											CHANNELS 3 Xrotation Yrotation Zrotation
											JOINT Bip01_R_Hand
											{
												OFFSET 2.580030 -27.804676 -1.136415
												CHANNELS 3 Xrotation Yrotation Zrotation
												JOINT Bip01_R_Finger0
												{
													OFFSET -0.281744 -19.659061 -0.398649
													CHANNELS 3 Xrotation Yrotation Zrotation
													JOINT Bip01_Xtra02
													{
														OFFSET 4.152210 -5.712314 0.433813
														CHANNELS 3 Xrotation Yrotation Zrotation
														JOINT Bip01_Xtra02Nub
														{
															OFFSET 15.457960 0.041654 0.507982
															CHANNELS 3 Xrotation Yrotation Zrotation
															End Site
															{
																OFFSET -15.421730 -0.157725 -1.163459
															}
														}
													}
													JOINT Bip01_R_Finger0Nub
													{
														OFFSET 8.362326 -9.718440 -0.143142
														CHANNELS 3 Xrotation Yrotation Zrotation
														End Site
														{
															OFFSET -1.213036 -0.198171 9.872291
														}
													}
												}
											}
										}
									}
								}
								JOINT Bip01_L_Clavicle
								{
									OFFSET -16.535673 0.011162 -6.705583
									CHANNELS 3 Xrotation Yrotation Zrotation
									JOINT Bip01_L_UpperArm
									{
										OFFSET 20.272615 -12.959999 -2.510836
										CHANNELS 3 Xrotation Yrotation Zrotation
										JOINT Bip01_L_Forearm
										{
											OFFSET -13.633495 -15.503681 0.653678
											CHANNELS 3 Xrotation Yrotation Zrotation
											JOINT Bip01_L_Hand
											{
												OFFSET 2.579988 -27.804686 1.136487
												CHANNELS 3 Xrotation Yrotation Zrotation
												JOINT Bip01_L_Finger0
												{
													OFFSET -0.281765 -19.659058 0.398696
													CHANNELS 3 Xrotation Yrotation Zrotation
													JOINT Bip01_Xtra01
													{
														OFFSET 4.083549 -5.738758 -0.666714
														CHANNELS 3 Xrotation Yrotation Zrotation
														JOINT Bip01_Xtra01Nub
														{
															OFFSET 6.758158 -0.395525 -0.023239
															CHANNELS 3 Xrotation Yrotation Zrotation
															End Site
															{
																OFFSET 6.764923 -0.254147 -0.029908
															}
														}
													}
													JOINT Bip01_L_Finger0Nub
													{
														OFFSET -0.012636 -9.629153 0.045740
														CHANNELS 3 Xrotation Yrotation Zrotation
														End Site
														{
															OFFSET 0.988407 0.004791 8.293357
														}
													}
												}
											}
										}
									}
								}
								JOINT BN_hair03_01
								{
									OFFSET -5.894140 16.270622 -2.498433
									CHANNELS 3 Xrotation Yrotation Zrotation
									JOINT BN_hair03_02
									{
										OFFSET -0.189278 -7.800507 -6.219162
										CHANNELS 3 Xrotation Yrotation Zrotation
										JOINT BN_hair03_03
										{
											OFFSET 0.612345 -10.844475 -3.370718
											CHANNELS 3 Xrotation Yrotation Zrotation
											End Site
											{
												OFFSET -2.273296 2.862007 -10.769416
											}
										}
									}
								}
								JOINT Bip01_Neck1
								{
									OFFSET 9.383755 11.908699 -0.000007
									CHANNELS 3 Xrotation Yrotation Zrotation
									JOINT BN_hair02_01
									{
										OFFSET 9.126320 18.808022 -1.420810
										CHANNELS 3 Xrotation Yrotation Zrotation
										JOINT BN_hair02_02
										{
											OFFSET 0.393478 -5.181091 -5.248574
											CHANNELS 3 Xrotation Yrotation Zrotation
											JOINT BN_hair02_03
											{
												OFFSET 0.762280 -8.167076 -0.230047
												CHANNELS 3 Xrotation Yrotation Zrotation
												End Site
												{
													OFFSET -0.025837 -1.251419 -8.109770
												}
											}
										}
									}
									JOINT Bip01_Head
									{
										OFFSET 14.266129 10.475403 -0.000008
										CHANNELS 3 Xrotation Yrotation Zrotation
										JOINT BN_Reins_01
										{
											OFFSET 18.547455 -15.740112 -0.000035
											CHANNELS 3 Xrotation Yrotation Zrotation
											JOINT BN_Reins_02
											{
												OFFSET -5.372810 -5.884506 0.000028
												CHANNELS 3 Xrotation Yrotation Zrotation
												JOINT BN_Reins_03
												{
													OFFSET -6.395866 -15.947449 0.000070
													CHANNELS 3 Xrotation Yrotation Zrotation
													JOINT BN_Halter_R_01
													{
														OFFSET -1.234055 -3.096100 7.096737
														CHANNELS 3 Xrotation Yrotation Zrotation
														End Site
														{
															OFFSET 10.514435 -4.176861 -0.000004
														}
													}
													JOINT BN_Halter_L_01
													{
														OFFSET -1.234062 -3.096146 -7.096726
														CHANNELS 3 Xrotation Yrotation Zrotation
														End Site
														{
															OFFSET -10.514435 4.176865 -0.000000
														}
													}
													JOINT BN_Reins_04
													{
														OFFSET -6.737644 -16.971684 0.000074
														CHANNELS 3 Xrotation Yrotation Zrotation
														JOINT BN_Halter_R_02
														{
															OFFSET -4.688869 -11.781956 7.096771
															CHANNELS 3 Xrotation Yrotation Zrotation
															End Site
															{
																OFFSET 14.669624 -5.827511 -0.000006
															}
														}
														JOINT BN_Halter_L_02
														{
															OFFSET -4.688892 -11.782017 -7.096693
															CHANNELS 3 Xrotation Yrotation Zrotation
															End Site
															{
																OFFSET -14.669624 5.827507 -0.000002
															}
														}
														JOINT BN_Reins_05
														{
															OFFSET -6.822578 -16.971161 0.000074
															CHANNELS 3 Xrotation Yrotation Zrotation
															JOINT BN_Reins_06
															{
																OFFSET -6.140354 -15.095148 0.000066
																CHANNELS 3 Xrotation Yrotation Zrotation
																End Site
																{
																	OFFSET -15.095150 6.140352 -0.000002
																}
															}
														}
													}
												}
											}
										}
										JOINT BN_hair01_01
										{
											OFFSET 8.957344 8.870956 0.112121
											CHANNELS 3 Xrotation Yrotation Zrotation
											JOINT BN_hair01_02
											{
												OFFSET 6.002075 -2.962952 -3.121264
												CHANNELS 3 Xrotation Yrotation Zrotation
												End Site
												{
													OFFSET 5.917702 3.813591 -2.232396
												}
											}
										}
										JOINT BN_Eyebrow_R
										{
											OFFSET 11.795959 -0.430496 4.449781
											CHANNELS 3 Xrotation Yrotation Zrotation
											JOINT Bip01_Xtra06Nub
											{
												OFFSET 2.936661 -0.262573 3.246701
												CHANNELS 3 Xrotation Yrotation Zrotation
												End Site
												{
													OFFSET 2.768745 0.208199 3.394807
												}
											}
										}
										JOINT BN_Eyebrow_L
										{
											OFFSET 11.586395 -0.445618 -4.441728
											CHANNELS 3 Xrotation Yrotation Zrotation
											JOINT Bip01_Xtra05Nub
											{
												OFFSET 3.244698 -0.349442 -4.416700
												CHANNELS 3 Xrotation Yrotation Zrotation
												End Site
												{
													OFFSET 3.053162 0.072495 -4.564033
												}
											}
										}
										JOINT Bip01_R_Ear_01
										{
											OFFSET 7.142960 7.567184 4.311657
											CHANNELS 3 Xrotation Yrotation Zrotation
											JOINT Bip01_Xtra04Nub
											{
												OFFSET 9.464531 9.264214 1.682953
												CHANNELS 3 Xrotation Yrotation Zrotation
												End Site
												{
													OFFSET 8.448181 10.159340 1.910823
												}
											}
										}
										JOINT Bip01__L_Ear_01
										{
											OFFSET 7.214943 7.717056 -4.356771
											CHANNELS 3 Xrotation Yrotation Zrotation
											JOINT Bip01_Xtra03Nub
											{
												OFFSET 9.230225 8.944366 -2.322746
												CHANNELS 3 Xrotation Yrotation Zrotation
												End Site
												{
													OFFSET 8.170288 9.841324 -2.643566
												}
											}
										}
										JOINT Bip01_Jaw
										{
											OFFSET 9.196068 -4.110695 -0.000013
											CHANNELS 3 Xrotation Yrotation Zrotation
											JOINT Bip01_Ponytail1Nub
											{
												OFFSET 10.976463 -21.082108 -0.000053
												CHANNELS 3 Xrotation Yrotation Zrotation
												End Site
												{
													OFFSET 11.247093 -20.938980 0.000113
												}
											}
										}
										JOINT Bip01_HeadNub
										{
											OFFSET 29.954575 -18.249489 -0.000063
											CHANNELS 3 Xrotation Yrotation Zrotation
											End Site
											{
												OFFSET -9.198448 -13.366348 0.000168
											}
										}
									}
								}
							}
						}
					}
				}
			}
		}
	}
}
MOTION
Frames: 4
Frame Time: 0.033333
0.000000 0.000000 0.000000 0.000008 0.000000 -0.000000 -0.000000 0.000000 -0.000000 -0.055311 -2.509593 -1.779409 1.741280 0.272222 -1.288862 -0.361290 7.863330 -3.082754 0.093721 2.075631 10.418992 -0.167645 -0.610842 5.844630 0.138525 -4.577736 31.231395 -0.072329 1.071201 44.739870 -0.783598 -0.816621 8.072840 2.368120 8.558482 -16.389678 7.867785 -2.605268 -42.867428 -8.508298 -4.587749 50.332979 12.219693 -9.323122 -73.095926 0.211356 0.081359 -1.017547 -0.000566 -0.000563 -0.000094 -1.892294 -6.894354 10.164898 -5.039904 0.882240 -26.120575 8.407585 4.454428 49.494395 -11.818246 6.190168 -69.445218 -0.496648 -0.184826 -2.379837 0.008695 -0.000026 0.038612 -1.902530 0.146129 -15.308120 0.471238 3.221637 10.322830 0.616153 -0.133031 -2.558396 0.433159 -0.314411 -2.485962 0.000077 -0.000112 -0.000057 -0.000052 -0.014958 0.015042 1.881429 1.572104 1.462584 6.612619 11.512001 -15.509071 4.975562 5.266125 -6.968482 -0.477703 2.131586 20.083218 -1.543965 -5.164609 -40.308355 1.272791 3.751614 20.897346 0.123901 0.680804 -16.933885 5.232725 6.735995 -1.520111 -4.186291 -2.849512 8.803642 -1.545074 3.951235 6.354293 -0.802244 0.160591 -0.479910 -0.804178 0.123450 -0.482682 -0.104893 -0.702089 -29.160154 2.420289 1.683637 7.871971 -0.001192 -0.030350 -0.740739 -6.056350 8.668285 -85.209854 -5.238095 -1.791013 -61.150486 -0.834471 0.113075 2.634758 0.036567 0.063765 2.451814 -0.000914 0.100618 2.451956 4.348530 -0.127291 2.739254 -0.888632 2.326725 -7.367990 -0.222975 1.605610 -5.509979 -0.360100 3.322524 0.559159 2.266124 0.303064 2.595768 5.656790 0.251250 -5.678081 4.674895 0.160262 -1.031121 6.340934 15.084370 -26.435636 -0.000059 -0.000311 -31.113745 4.566979 -10.892690 28.037500 -0.000118 -0.000119 -41.798900 -0.000008 0.000031 13.932813 0.000004 0.000027 10.916546 -0.000220 -0.000142 -65.049082 -23.901272 -11.934501 -2.559862 34.949211 16.671909 -5.206573 -0.000116 -0.000128 -43.707009 0.000027 0.000066 -0.000003 1.255728 3.936960 -1.626462 -0.652943 -0.620052 0.765471 2.152010 -0.260987 -1.637460 0.018795 -0.023331 11.778589 0.000045 -0.000077 0.000030 0.023223 -0.032329 11.715996 0.945746 2.652644 -13.563557 0.039073 0.011725 11.754770 -1.273219 -2.232700 -12.448347 0.022892 0.006722 11.747209 -0.000022 0.000025 -0.209052 -0.003491 -0.040863 11.750716 0.000057 -0.000022 11.750680 
0.000000 0.000000 0.000000 0.000008 0.000000 -0.000000 -0.000000 0.000000 -0.000000 -0.040932 -2.218317 -1.039481 1.223706 0.247587 -1.441015 -0.252550 8.890729 -5.221888 0.661633 -0.260297 8.225745 0.092101 0.649849 10.558209 -0.482771 -4.115837 23.083622 0.190878 -1.332894 46.788534 -0.396812 -0.902275 8.037402 2.011375 9.398297 -10.587765 8.360582 -3.038908 -46.166406 -9.060218 -5.400845 55.258440 11.559223 -9.606046 -68.807244 0.193935 0.074815 -0.933983 -0.000567 -0.000563 -0.000094 -1.782437 -6.897561 15.006076 -4.075925 0.524067 -20.921880 8.755173 4.933238 52.459825 -11.569237 4.451192 -62.461486 -0.510357 -0.201321 -2.441934 0.008696 -0.000026 0.038610 -1.781414 -0.175764 -16.239214 0.388463 3.353061 10.699441 0.130824 -0.097008 -3.476544 0.579377 -0.611078 -2.817164 0.000077 -0.000112 -0.000058 -0.000052 -0.014958 0.015043 1.881406 1.572102 1.462580 6.612614 11.512000 -15.509071 4.970739 5.265953 -6.966557 -0.600532 2.480931 21.003761 -1.653368 -5.531858 -41.407236 0.032431 3.478117 19.768545 0.083749 0.550441 -13.607267 7.458939 5.087675 -19.439560 0.154484 -0.382523 -15.557429 -1.592711 3.952399 6.458293 -0.802276 0.160589 -0.479886 -0.804176 0.123449 -0.482678 -0.241769 -1.274763 -28.674603 2.181859 2.667260 8.882067 0.000860 0.116725 2.845778 -5.566426 9.008014 -94.054690 -5.034351 -2.366283 -60.412948 -0.833494 0.112310 2.878836 0.036594 0.063765 2.451815 -0.000902 0.100617 2.451965 3.989190 -0.088057 3.474496 -0.710937 2.049544 -6.518995 -0.061051 1.322512 -4.573299 -0.291896 3.850893 1.491277 2.712086 0.395057 3.091434 7.371763 0.366973 -4.379139 5.494225 0.516974 0.779386 8.621423 18.819376 -31.133747 -0.000086 -0.000354 -35.777893 6.944093 -12.597376 35.573066 0.001343 -0.000707 -42.536434 -0.000007 0.000048 18.782114 0.000006 0.000042 14.606742 0.000715 -0.000516 -66.224374 -23.901277 -11.934499 -2.559864 34.949197 16.671909 -5.206575 0.000887 -0.000535 -44.418523 0.000017 0.000070 0.000007 1.073164 2.860566 -1.011102 -0.924935 -1.137615 1.701634 2.154591 -0.261335 -1.639421 0.018806 -0.023327 11.778604 0.000058 -0.000052 0.000027 0.023231 -0.032295 11.715984 0.991296 3.279984 -14.117514 0.039086 0.011751 11.754773 -1.272128 -2.256941 -12.542433 0.022901 0.006749 11.747198 -0.000025 0.000021 -0.573568 -0.003475 -0.040881 11.750715 0.000057 -0.000026 11.750677 
0.000000 0.000000 0.000000 0.000008 0.000000 -0.000000 -0.000000 0.000000 -0.000000 -0.049049 -1.291594 -0.501514 0.725316 0.251875 -1.310446 -0.070472 9.899487 -7.323622 1.104350 -5.099688 2.802347 -0.006766 2.416257 19.053521 -0.735633 -2.793257 14.240300 0.218871 -5.143671 47.540418 -0.052409 -0.963445 7.764701 1.545345 10.660326 -3.063978 8.912922 -3.590120 -50.084630 -9.212061 -5.653715 56.736066 10.095384 -9.517501 -60.534915 0.153295 0.059439 -0.738786 -0.000566 -0.000563 -0.000095 -1.576291 -7.350277 18.548506 -3.275861 0.299444 -16.717498 8.757364 4.936429 52.479215 -10.833862 3.244209 -57.112252 -0.527944 -0.198295 -2.466885 0.008696 -0.000024 0.038611 -1.684132 -0.633359 -16.617915 0.521784 2.785265 10.523705 -0.344456 -0.054020 -4.376515 0.695986 -1.049921 -3.283508 0.000077 -0.000112 -0.000056 -0.000052 -0.014958 0.015042 1.881404 1.572102 1.462579 6.612612 11.511999 -15.509068 4.966027 5.265773 -6.964673 -0.619559 2.318315 21.928568 -1.648240 -5.338515 -42.162256 -1.721297 3.134842 18.141119 0.045429 0.390153 -9.587993 9.644569 1.609667 -42.668147 6.313380 0.414548 -47.266531 -1.639436 3.953440 6.560348 -0.802300 0.160588 -0.479906 -0.804177 0.123450 -0.482677 -0.311038 -1.434213 -27.557896 2.022431 4.005888 9.466320 -0.007944 0.283215 6.911232 -5.290845 9.184432 -100.410666 -4.803890 -2.851509 -59.340410 -0.832048 0.111710 3.118118 0.036621 0.063766 2.451813 -0.000933 0.100619 2.451942 3.636364 -0.054113 4.195690 -0.779672 2.156518 -6.848068 0.102193 1.047515 -3.654126 -0.370090 3.753639 2.230558 3.146000 0.492447 3.576424 8.932224 0.460850 -2.835613 7.504981 1.005265 2.676820 10.272137 19.654781 -33.804505 -0.000105 -0.000381 -39.303941 7.442353 -11.723695 39.170875 -0.000121 -0.000119 -42.561060 -0.000002 0.000054 20.788051 0.000033 0.000037 16.133218 -0.000215 -0.000147 -66.263360 -23.901275 -11.934503 -2.559860 34.949197 16.671909 -5.206574 -0.000119 -0.000130 -44.442050 0.000043 0.000059 -0.000075 0.905722 1.803189 -0.411447 -1.183413 -1.649460 2.617398 2.157113 -0.261678 -1.641342 0.018825 -0.023316 11.778630 0.000063 -0.000053 0.000021 0.023243 -0.032299 11.715964 1.039800 3.886881 -14.513153 0.039102 0.011773 11.754784 -1.272300 -2.252934 -12.526876 0.022916 0.006770 11.747195 -0.000031 0.000011 -1.568450 -0.003456 -0.040904 11.750719 0.000056 -0.000027 11.750676 
0.000000 0.000000 0.000000 0.000008 0.000000 -0.000000 -0.000000 0.000000 -0.000000 -0.000000 0.072144 -0.000006 0.313757 0.306140 -0.665151 -0.082265 11.564239 -5.353258 0.444524 -9.347423 -4.770069 -0.278826 3.304522 23.675533 0.024923 -0.833936 10.046625 0.179091 -7.164104 47.610448 0.158833 -1.057673 6.995364 0.896358 11.933300 4.806712 9.258544 -3.976496 -52.685409 -9.183386 -5.604800 56.452043 8.286066 -9.460048 -51.876161 0.112318 0.043769 -0.541656 -0.000567 -0.000563 -0.000092 -1.220492 -8.471981 20.654147 -2.628025 0.162872 -13.366047 8.293740 4.308245 48.565613 -9.395244 2.650005 -53.333607 -0.545722 -0.195232 -2.492101 0.008697 -0.000024 0.038611 -1.565947 -1.211851 -16.677862 0.654585 2.211420 10.347653 -0.823700 -0.003078 -5.284998 0.804538 -1.608573 -3.907609 0.000077 -0.000113 -0.000058 -0.000052 -0.014958 0.015042 1.881383 1.572099 1.462587 6.612616 11.512000 -15.509070 4.961288 5.265594 -6.962778 -0.538269 1.679933 22.982805 -1.498117 -4.586269 -42.430067 -3.198369 3.105464 16.577371 0.015957 0.207859 -5.084425 9.910246 -1.591307 -60.675391 10.190209 -0.836478 -68.935979 -1.662470 3.941339 6.612334 -0.802347 0.160578 -0.479934 -0.804178 0.123449 -0.482682 -0.313065 -1.270493 -25.618163 1.983488 5.745819 9.799578 -0.033558 0.478722 11.719881 -5.233357 9.268585 -104.892117 -4.527425 -3.281412 -57.863600 -0.830023 0.116270 3.317373 0.036674 0.063766 2.451812 -0.000932 0.100619 2.451944 3.355258 -0.062341 4.312715 -0.849206 2.265044 -7.180119 0.271488 0.772490 -2.725120 -0.581268 3.073068 2.833485 3.189100 0.485375 3.369408 9.858684 0.521186 -2.084986 10.268946 1.534880 4.402628 11.258090 17.922980 -34.795104 -0.000113 -0.000393 -40.728322 5.682446 -8.970926 38.058982 0.000381 -0.000319 -42.026779 -0.000002 0.000049 19.482174 0.000032 0.000034 15.337489 0.000110 -0.000274 -65.412913 -23.901269 -11.934497 -2.559857 34.949207 16.671918 -5.206573 0.000228 -0.000269 -43.927802 0.000043 0.000059 -0.000075 0.983885 0.655996 0.546852 -1.041126 -2.468589 4.651542 2.159671 -0.262034 -1.643286 0.018858 -0.023315 11.778674 0.000055 -0.000055 0.000032 0.023282 -0.032317 11.715907 1.085198 4.431869 -14.752292 0.039125 0.011822 11.754791 -1.273496 -2.226604 -12.424786 0.022942 0.006817 11.747180 -0.000045 -0.000007 -3.967545 -0.003422 -0.040947 11.750724 0.000055 -0.000024 11.750680 
